<?xml version="1.0" encoding="utf-8"?>
<svg width="284px" height="80px" viewBox="0 0 284 80" version="1.1" xmlns:xlink="http://www.w3.org/1999/xlink" xmlns="http://www.w3.org/2000/svg">
  <desc>Created with Lunacy</desc>
  <path d="M0 39.8951C0 23.8586 9.60085 9.38051 24.3732 3.14007C29.2822 1.05843 34.5612 -0.0096127 39.8932 6.51861e-05C53.2699 -0.00741925 65.7594 6.69203 73.1521 17.8403C80.5447 28.9886 81.8557 43.1007 76.6432 55.4201C68.0646 75.7092 44.6698 85.2112 24.3732 76.6501C9.60085 70.4096 3.8147e-06 55.9315 0 39.8951ZM4.35324 24.8801C-3.91845 44.5084 5.26793 67.1276 24.8832 75.4301C29.6316 77.4402 34.7369 78.4708 39.8932 78.4601C55.3978 78.4713 69.4003 69.1928 75.4332 54.9101C80.4538 42.9965 79.1768 29.3605 72.0315 18.5863C64.8862 7.81202 52.8215 1.33029 39.8933 1.32008C24.3855 1.30784 10.3809 10.5917 4.35324 24.8801ZM169.023 6.85007L168.593 6.52007C168.513 6.08007 168.443 5.65007 168.373 5.14007C168.219 4.80885 168.052 4.56606 167.911 4.36166C167.511 3.78234 167.324 3.51148 168.263 2.41007C170.57 2.36484 171.822 3.14636 173.187 3.99923C173.331 4.08902 173.476 4.17959 173.623 4.27007C174.043 4.54007 174.613 4.53007 175.043 4.81007C175.963 5.44007 176.983 6.13007 177.883 6.81007C178.223 7.07007 178.363 7.59007 178.653 7.91007C178.863 10.9401 177.163 11.8201 174.163 11.7301C173.266 13.2225 171.739 14.2268 170.013 14.4601C169.683 14.4701 169.533 13.4501 169.683 13.3701C170.683 12.6901 170.563 10.3801 170.123 9.00007C169.851 8.23896 169.481 7.51629 169.023 6.85007ZM43.2132 3.66009L43.5132 3.66009L43.5332 3.34009L41.2932 3.34009L41.2932 3.59009L41.6332 3.68009C41.742 3.71802 41.846 3.76835 41.9432 3.83009C42.039 3.9275 42.108 4.04809 42.1432 4.18009C42.1639 4.41631 42.1639 4.65387 42.1432 4.89009L42.1432 6.89009L39.3232 3.28009L37.3232 3.28009L37.3232 3.58009C37.4538 3.60659 37.5812 3.64681 37.7032 3.70009C37.8145 3.74803 37.9162 3.8158 38.0032 3.90009C38.0896 3.96969 38.1581 4.05881 38.2032 4.16009C38.2287 4.27536 38.2287 4.39482 38.2032 4.51009L38.2032 7.00009C38.216 7.272 38.1925 7.5444 38.1332 7.81009C38.1055 7.93919 38.0307 8.05331 37.9232 8.13009C37.8301 8.19462 37.7245 8.23891 37.6132 8.26009L37.2832 8.26009L37.2832 8.58009L39.5432 8.58009L39.5432 8.29009C39.4238 8.27191 39.3066 8.24175 39.1932 8.20009C39.0789 8.16835 38.9708 8.11764 38.8732 8.05009C38.7787 7.95329 38.7129 7.83211 38.6832 7.70009C38.6575 7.46747 38.6575 7.23271 38.6832 7.00009L38.6832 4.53009L41.8932 8.63009L42.5532 8.63009L42.6032 4.86009C42.596 4.61859 42.6161 4.37706 42.6632 4.14009C42.6897 4.00745 42.7602 3.88764 42.8632 3.80009C42.9686 3.72897 43.0879 3.68123 43.2132 3.66009ZM282.473 15.7001C281.473 18.4701 279.173 20.5001 277.473 22.7001C276.793 23.5901 275.543 23.6201 275.223 24.8501L277.513 24.8501C278.072 25.1031 278.66 25.2878 279.263 25.4001C279.685 29.0931 277.936 30.3846 275.913 31.8783C275.827 31.9418 275.74 32.0057 275.653 32.0701C275.223 32.3901 274.963 32.9701 274.453 33.2701C273.693 33.7101 272.833 33.7801 272.053 34.1401C270.763 34.7301 269.753 35.8601 268.003 36C267.902 35.6764 267.852 35.3391 267.853 35.0001C268.579 34.1672 269.405 33.4282 270.313 32.8001C270.649 32.4353 270.941 32.0326 271.183 31.6001L272.933 29.9601L273.263 29.0801C273.603 28.5901 274.073 28.3301 274.263 27.6601L273.723 27.6601C273.123 28.1401 272.533 28.3201 271.863 28.7601C270.993 29.3201 270.393 30.3301 269.563 30.9401C266.918 33.0153 264.018 34.7427 260.933 36.0801C260.566 36.2247 260.19 36.3852 259.804 36.5501C257.758 37.423 255.424 38.4188 252.623 37.8301C252.543 37.5816 252.506 37.3212 252.513 37.0601C252.623 36.9501 252.553 37.0301 252.623 36.8401C255.313 35.3701 257.773 33.4701 260.383 31.9201L261.803 31.4901C263.403 30.4701 265.323 29.4501 267.053 28.5401C268.333 27.8701 269.713 27.4001 270.873 26.6801C271.403 26.3401 272.253 26.3201 272.403 25.5801L272.193 25.5801C271.681 25.2559 270.83 25.6725 269.95 26.1031C269.282 26.4296 268.598 26.7642 268.033 26.7901C267.944 26.4305 267.907 26.0601 267.923 25.6901C268.289 25.218 268.518 24.6539 268.583 24.0601C267.583 23.3801 267.583 22.9601 265.843 22.8501C265.353 24.4701 263.453 24.9601 262.353 26.0201C262.023 25.9701 261.843 25.9501 261.693 25.6901C261.341 25.1504 261.723 24.7391 262.026 24.4133C262.111 24.3226 262.189 24.2385 262.243 24.1601C263.032 23.3354 263.663 22.3727 264.103 21.3201C263.531 21.0902 263.174 20.5149 263.223 19.9001C263.213 19.8801 263.273 19.7901 263.333 19.7901C264.013 19.7201 265.103 19.6101 265.843 19.4601C266.413 18.5601 267.413 17.9701 267.593 16.7301C267.112 16.7474 266.798 16.8737 266.501 16.9933C266.112 17.1497 265.752 17.2947 265.083 17.1701C264.998 16.8848 264.961 16.5875 264.973 16.2901C265.65 15.8345 266.09 15.1018 266.173 14.2901C265.666 14.3667 265.15 14.3667 264.643 14.2901C263.701 13.9065 263.063 13.0156 263.003 12.0001C263.323 11.7586 263.726 11.6542 264.123 11.7101C265.075 12.4073 265.954 11.9636 266.79 11.5419C267.069 11.401 267.343 11.2627 267.613 11.1701C268.303 10.9201 268.743 11.0701 269.253 10.7301C270.863 9.64008 271.993 6.62008 271.993 3.84008C271.993 3.53008 272.813 3.25008 272.993 3.40008C273.553 3.93008 274.573 4.59008 274.633 5.59008C274.991 6.1489 274.5 7.28681 274.254 7.85823C274.231 7.91055 274.211 7.95813 274.193 8.00008C273.493 9.67008 272.013 10.9001 271.903 13.0001L272.203 13.0701C272.743 13.4117 273.864 12.8698 274.583 12.5221C274.769 12.4322 274.928 12.3553 275.043 12.3101C276.303 11.7901 277.493 11.6501 278.863 11.2101C278.953 11.1848 279.058 11.1357 279.172 11.0818C279.465 10.9441 279.824 10.7751 280.183 10.8901C280.463 10.9701 280.713 11.3401 281.053 11.4301C281.336 11.5093 281.663 11.5117 281.981 11.514C282.506 11.5178 283.007 11.5214 283.243 11.8701C283.916 12.7491 283.229 14.1361 282.764 15.0726C282.642 15.3186 282.536 15.5336 282.473 15.7001ZM33.5732 4.00004L33.2832 4.13004C33.1739 4.18501 33.0756 4.25958 32.9932 4.35004C32.9059 4.45619 32.8661 4.59363 32.8832 4.73004C32.9011 4.97066 32.9447 5.20868 33.0132 5.44003L33.5132 7.32004C33.6712 7.82298 33.5941 8.37035 33.3032 8.81004C32.9816 9.27475 32.4955 9.6 31.9432 9.72004C31.3546 9.92902 30.7119 9.92902 30.1232 9.72004C29.6353 9.49199 29.2832 9.04734 29.1732 8.52004L28.4732 5.92004C28.4586 5.84556 28.424 5.77644 28.3732 5.72004C28.3088 5.6601 28.2293 5.61865 28.1432 5.60004L27.6632 5.60004L27.5932 5.32004L30.2532 4.61004L30.3332 4.89004L30.1032 5.00004L29.8732 5.12004C29.7984 5.16178 29.7469 5.23546 29.7332 5.32004C29.7138 5.39885 29.7138 5.48122 29.7332 5.56004L30.4132 8.11004C30.486 8.51232 30.7118 8.87076 31.0433 9.11004C31.3728 9.28438 31.7592 9.31688 32.1133 9.20004C32.4911 9.12477 32.8166 8.88702 33.0033 8.55004C33.178 8.16939 33.1994 7.7361 33.0632 7.34004L32.6032 5.62004C32.541 5.40549 32.4572 5.19777 32.3532 5.00004C32.2924 4.87904 32.1943 4.78085 32.0732 4.72004C31.9541 4.69951 31.8324 4.69951 31.7132 4.72004L31.3632 4.72004L31.2832 4.44004L33.5033 3.85004L33.5732 4.00004ZM49.1832 10L46.3532 9.27005L46.4232 8.99005L46.7132 9.04005C46.8112 9.03946 46.9087 9.02601 47.0032 9.00005C47.085 8.98957 47.1616 8.95472 47.2232 8.90005C47.2756 8.83945 47.3132 8.76758 47.3332 8.69005L48.2632 5.08005C48.2781 5.0041 48.2781 4.926 48.2632 4.85005C48.2372 4.76837 48.1844 4.69789 48.1132 4.65005L47.8832 4.51005L47.6032 4.39005L47.6732 4.11005L50.5032 4.84005L50.4332 5.12005L50.1532 5.12005C50.0601 5.11114 49.9664 5.11114 49.8732 5.12005C49.7869 5.12382 49.7049 5.15945 49.6432 5.22005C49.5942 5.28141 49.56 5.35328 49.5432 5.43005L48.5932 9.00005C48.5787 9.07602 48.5787 9.15407 48.5932 9.23005C48.6199 9.31137 48.6727 9.38165 48.7432 9.43005C48.8129 9.4847 48.8905 9.52853 48.9732 9.56005L49.2632 9.67004L49.1832 10ZM59.3032 9.18009C59.3827 9.19279 59.4601 9.21634 59.5332 9.25009L59.6732 9.00009L57.7832 8.00009L57.6332 8.25009C57.8228 8.35636 57.9949 8.49128 58.1432 8.65009C58.2032 8.75009 58.2032 8.84009 58.2032 8.91009C58.1481 8.99904 58.0808 9.07982 58.0032 9.15009L57.7632 9.41009L56.8432 10.2101L55.5532 11.3101C55.6632 10.2201 55.7432 9.40009 55.7932 8.86009C55.8732 8.32675 55.9132 7.94675 55.9132 7.72009C55.9101 7.67347 55.9101 7.6267 55.9132 7.58009C55.9088 7.55361 55.9088 7.52657 55.9132 7.50009L56.1132 7.50009C56.2987 7.53746 56.4798 7.59444 56.6532 7.67009L56.7832 7.42009L54.2632 6.09009L54.1232 6.34009L54.3332 6.51009C54.3927 6.56534 54.4433 6.62942 54.4832 6.70009C54.5417 6.78921 54.5856 6.88711 54.6132 6.99009C54.6293 7.09615 54.6293 7.20402 54.6132 7.31009C54.5932 7.71009 54.5232 8.37009 54.4332 9.31009C54.3432 10.2501 54.2432 11.1701 54.1532 12.0801L54.8132 12.4301L55.8832 11.5401L56.8832 10.6901L57.8232 9.93009C58.0932 9.70009 58.3132 9.53009 58.4532 9.42009C58.5424 9.3488 58.6398 9.28838 58.7432 9.24009C58.8427 9.2038 58.9474 9.18354 59.0532 9.18009C59.1362 9.16963 59.2202 9.16963 59.3032 9.18009ZM230.903 22.7001C230.453 23.0301 230.453 23.4301 230.133 23.9101C229.592 24.6508 228.945 25.3079 228.213 25.8601C227.053 26.7301 225.883 27.5101 224.713 28.3801C224.133 28.8001 223.663 29.4801 223.073 29.9101C222.483 30.3401 220.883 31.1901 220.563 31.7701L220.233 34.0601C219.83 36.0966 219.282 38.1017 218.593 40.0601C217.923 41.5801 216.413 42.4501 215.203 43.4501C211.963 46.1101 208.353 48.7001 202.523 48.7001L202.523 48.4801C202.973 47.8101 202.883 47.2801 203.613 46.7301C204.167 46.321 204.752 45.9565 205.363 45.6401L206.243 45.5301C206.603 45.3601 206.993 45.1601 207.433 44.9801C207.818 44.7955 208.186 44.578 208.533 44.3301C210.783 42.8801 213.893 39.1901 213.893 35.5801C212.215 35.8136 210.588 36.331 209.083 37.1101L208.083 37.3301C207.313 37.7501 206.783 38.6001 206.083 39.0801C205.163 39.7201 204.273 40.1001 203.353 40.7201C201.293 42.1301 199.003 43.6901 195.813 43.0201C194.452 40.9512 194.482 40.1564 194.576 37.65C194.588 37.3216 194.602 36.9639 194.613 36.5701C194.623 36.3201 194.683 36.3101 194.803 36.2201C194.923 36.1301 195.113 36.2501 195.263 36.4601C195.616 36.9712 196.018 37.4467 196.463 37.8801C196.76 37.8854 197.057 37.8483 197.343 37.7701C197.923 37.6101 198.643 37.2901 199.203 37.1101L200.403 37.0001C201.979 36.3131 203.491 35.49 204.923 34.5401C205.766 34.153 206.647 33.858 207.553 33.6601C208.393 33.3801 209.143 32.9701 210.063 32.5701C210.983 32.1701 214.563 30.9601 214.983 30.3901C215.427 29.8064 215.424 28.8198 215.42 27.828C215.418 27.1885 215.416 26.5471 215.533 26.0101C215.923 24.1901 215.893 19.2801 215.313 17.7001C215.148 17.2468 214.883 16.699 214.589 16.0932C213.67 14.1995 212.476 11.7393 213.233 9.83009C213.527 9.60742 213.87 9.4598 214.233 9.40009C214.983 9.94009 215.953 9.57009 216.853 9.94009C217.433 10.1501 217.793 10.8001 218.273 11.1501C219.183 11.7901 220.413 12.0001 221.003 13.0001C221.457 13.9091 221.519 14.9645 221.173 15.9201C221.083 16.1401 220.703 16.3801 220.623 16.5801L220.623 19.4501C220.623 20.1431 220.6 20.8766 220.576 21.6218C220.517 23.4466 220.456 25.3422 220.733 26.8901L220.953 26.8901C221.953 26.1101 223.013 25.6301 224.013 24.8901C224.64 24.411 225.112 23.8095 225.572 23.2237C226.667 21.8285 227.693 20.5221 230.573 21.1701C230.803 21.2501 231.353 22.3701 230.903 22.7001ZM114.033 20.0801C114.235 21.4906 114.308 22.9164 114.253 24.3401C114.251 24.9569 114.305 25.5727 114.413 26.1801C114.383 27.3101 114.303 28.4401 114.303 29.5701C114.434 32.3475 114.29 35.131 113.873 37.8801C113.833 38.7901 113.763 39.7001 113.763 40.6101C113.173 43.2301 112.943 45.8401 112.013 48.0501C111.643 48.9001 111.223 50.3501 110.373 50.6701C109.95 50.8031 109.503 50.8407 109.063 50.7801C108.44 49.8498 108.465 48.7952 108.498 47.431C108.505 47.1088 108.513 46.7693 108.513 46.4101C108.753 46.0601 108.593 45.2401 108.513 44.8701C108.467 44.8234 108.384 44.8389 108.302 44.8545C108.261 44.8623 108.22 44.8701 108.183 44.8701C107.302 45.7474 106.352 46.5532 105.343 47.2801L104.793 47.9401C103.793 48.6301 102.733 49.0901 101.733 49.8001C101.083 50.2701 100.023 51.7901 99.4432 52.0901C98.8054 52.1652 98.161 52.1652 97.5232 52.0901L97.3632 51.9801C95.831 51.4724 95.9516 48.4428 96.0265 46.5638C96.0327 46.4072 96.0386 46.2586 96.0432 46.1201C96.0444 45.9772 96.068 45.8355 96.1133 45.7001C96.1685 45.602 96.2476 45.5195 96.3432 45.4601C98.8232 43.8401 99.3432 40.6801 100.343 37.5501C100.413 37.3393 100.528 37.1269 100.652 36.9013C100.955 36.3454 101.302 35.7092 101.103 34.8201C100.933 34.0501 100.733 33.1001 100.563 32.4101L100.563 31.5401C100.293 30.7401 99.5133 30.2801 99.3633 29.3501C99.3232 29.2001 99.7733 28.8101 100.013 28.8101C101.203 28.8101 101.473 29.4601 102.203 29.6801C102.933 29.9001 103.623 29.6801 104.203 29.9001C104.783 30.1201 105.073 30.6301 105.513 30.9001L106.933 31.1201C107.573 31.3801 107.963 31.9901 108.573 32.2201C108.643 31.3701 108.713 30.5401 108.793 29.7001L108.793 27.5601C109.263 25.3701 109.243 20.4401 108.573 18.4901C108.163 17.2301 106.983 16.4201 106.273 15.4901C105.823 14.8901 105.543 14.2201 105.073 13.6301C104.869 13.3733 104.639 13.1439 104.411 12.9174C103.779 12.2879 103.169 11.6804 103.213 10.5701C103.213 10.3801 103.803 9.75006 104.093 9.80006C105.353 10.0601 105.363 10.9701 106.273 11.4401C108.643 12.6701 112.933 14.7701 113.933 17.1301C114.113 17.5541 114.067 18.1081 114.021 18.6781C113.982 19.1567 113.942 19.6465 114.033 20.0801ZM21.1832 12.05L21.3232 11.9L21.1332 11.67L19.0032 13.39L19.1932 13.62L19.4432 13.48C19.5292 13.4341 19.6197 13.3972 19.7132 13.37C19.7937 13.3393 19.8827 13.3393 19.9632 13.37C20.0324 13.4036 20.0937 13.4513 20.1432 13.51L20.8032 14.35C20.7745 14.4982 20.7204 14.6403 20.6432 14.77C20.5413 14.9365 20.409 15.0824 20.2532 15.2C19.9014 15.4866 19.4188 15.5522 19.0032 15.37C18.4303 15.1062 17.9345 14.7 17.5632 14.19C17.1701 13.7455 16.9041 13.2031 16.7932 12.62C16.7235 12.1705 16.9035 11.7185 17.2632 11.44C17.5404 11.206 17.9039 11.1006 18.2632 11.15C18.7444 11.2413 19.1989 11.4395 19.5932 11.73L19.8432 11.52L18.6132 10.04L18.3532 10.25L18.3532 10.55C18.1333 10.6025 17.9189 10.6761 17.7132 10.77C17.4566 10.8774 17.2173 11.0223 17.0032 11.2C16.6804 11.4687 16.4093 11.794 16.2032 12.16C16.0199 12.4662 15.9009 12.8064 15.8532 13.16C15.8102 13.5205 15.8478 13.8859 15.9632 14.23C16.0778 14.5968 16.2648 14.9369 16.5132 15.23C16.7551 15.5477 17.0619 15.8102 17.4132 16C18.0254 16.3402 18.7548 16.3986 19.4132 16.16C19.7541 16.0329 20.0717 15.8505 20.3532 15.62C20.7046 15.3308 21.0142 14.9942 21.2732 14.62C21.511 14.3145 21.7061 13.9781 21.8532 13.62L21.6732 13.4C21.6232 13.35 21.5632 13.27 21.4832 13.17L21.1032 12.7C21.0551 12.6367 21.0179 12.5657 20.9932 12.49C20.9757 12.3988 20.9975 12.3044 21.0532 12.23C21.0927 12.1673 21.1361 12.1072 21.1832 12.05ZM28.4132 12.7101C17.4939 17.3266 10.4023 28.035 10.4132 39.8901C10.4293 53.9106 20.3125 65.9833 34.0545 68.768C47.7965 71.5526 61.5998 64.2797 67.073 51.3707C71.7399 40.309 69.2401 27.5226 60.7507 19.0331C52.2614 10.5435 39.475 8.04338 28.4132 12.7101ZM28.7632 66.2501C15.1845 60.5291 8.15021 45.4495 12.4921 31.369C16.8339 17.2885 31.139 8.7891 45.5816 11.7088C60.0241 14.6284 69.9044 28.0171 68.4359 42.6785C66.9673 57.3398 54.6279 68.5029 39.8932 68.5001C36.0698 68.5051 32.2845 67.7399 28.7632 66.2501ZM65.2533 15.3601L65.0433 15.1601C65.1304 14.9402 65.1778 14.7065 65.1833 14.4701C65.2053 14.2537 65.1561 14.036 65.0433 13.8501C64.9862 13.7655 64.9191 13.6883 64.8433 13.6201L64.6033 13.3901L64.0033 12.8801L62.6432 14.3801L63.0332 14.7501C63.1261 14.8269 63.2266 14.894 63.3332 14.9501C63.4414 15.0046 63.5624 15.0288 63.6832 15.0201C63.7968 15.0079 63.9062 14.9703 64.0033 14.9101C64.1223 14.8576 64.2362 14.794 64.3432 14.7201L64.5532 14.9101L63.0832 16.5301L62.8632 16.3301C62.9372 16.2176 62.9976 16.0967 63.0432 15.9701C63.0946 15.8558 63.1283 15.7344 63.1432 15.6101C63.1442 15.4939 63.1131 15.3797 63.0532 15.2801C62.9821 15.1735 62.8982 15.0761 62.8032 14.9901L62.4132 14.6301L61.4132 15.7501C61.3305 15.8452 61.2537 15.9454 61.1832 16.0501C61.155 16.131 61.155 16.2191 61.1832 16.3001C61.2001 16.3897 61.2417 16.4728 61.3032 16.5401C61.3732 16.6201 61.4732 16.7201 61.6132 16.8501L61.8432 17.0601C61.921 17.1304 62.0046 17.194 62.0932 17.2501C62.1694 17.3138 62.2535 17.3676 62.3432 17.4101C62.4117 17.4449 62.4866 17.4654 62.5632 17.4701C62.7908 17.4465 63.0153 17.3996 63.2332 17.3301C63.4341 17.2686 63.6311 17.1951 63.8232 17.1101L64.0132 17.2901L62.8432 18.4301L59.2032 15.1101L59.4032 14.8901C59.4758 14.9522 59.5526 15.009 59.6332 15.0601C59.7017 15.1112 59.7755 15.1548 59.8533 15.1901C59.9308 15.2184 60.0158 15.2184 60.0933 15.1901C60.1677 15.1607 60.2332 15.1125 60.2832 15.0501L62.7932 12.3201C62.8425 12.2649 62.88 12.2003 62.9032 12.1301C62.9347 12.0463 62.9347 11.9539 62.9032 11.8701C62.867 11.7844 62.82 11.7038 62.7632 11.6301C62.7151 11.5563 62.6617 11.4861 62.6032 11.4201L62.7932 11.2001L66.2332 14.3401L65.2533 15.3601ZM67.0033 39.8901C66.9995 50.8743 60.3839 60.7659 50.2422 64.9604C40.1005 69.155 28.4306 66.8261 20.6758 59.0602C12.9209 51.2942 10.6087 39.6211 14.8177 29.4854C19.0267 19.3497 28.9277 12.7482 39.9026 12.7601C54.8746 12.7763 67.0033 24.9181 67.0033 39.8901ZM255.393 20.9501C255.083 20.4801 254.433 20.1101 254.083 19.6401C253.313 18.6101 252.563 17.7201 251.783 16.6901L250.583 15.6901L250.583 13.9401C250.603 13.8301 250.963 13.5001 251.133 13.5001C252.333 13.9801 252.913 14.9601 253.863 15.5801C254.813 16.2001 255.893 16.4701 256.813 17.1101C258.413 18.2301 261.183 22.4001 261.183 25.1101C260.273 26.2301 259.473 27.9501 257.473 27.9501C256.843 25.8601 256.543 22.5501 255.393 20.9501ZM272.913 23.1401C273.237 22.4978 273.601 21.8765 274.003 21.2801C275.123 19.7601 277.203 18.8401 277.253 16.2901C275.293 16.1701 273.783 15.0901 271.683 15.0901C270.523 16.5801 268.273 18.3301 268.073 20.6701C268.152 20.7255 268.279 20.8693 268.428 21.0372C268.788 21.4451 269.274 21.9938 269.493 21.7601C270.313 21.1401 269.843 19.6801 270.493 19.1401C270.776 18.9061 270.973 18.9477 271.335 19.0241L271.363 19.0301C271.849 20.3207 272.184 21.6628 272.363 23.0301C272.54 23.0958 272.725 23.1329 272.913 23.1401ZM137.323 38.7701L138.413 38.6601C139.844 37.9676 141.397 37.56 142.983 37.4601C143.269 37.9158 143.385 38.4572 143.313 38.9901C142.623 39.6401 142.583 40.8101 142.003 41.4001C141.263 41.9627 140.457 42.4328 139.603 42.8001L134.793 44.1101L133.143 44.1101C132.833 44.2001 132.353 44.9801 131.833 45.2001C130.133 45.8322 128.235 45.6324 126.703 44.6601C125.543 43.8901 124.133 39.8001 123.643 38.2101C123.313 37.3301 123.573 36.6401 123.313 35.6901C122.753 33.6901 122.143 30.8701 121.673 28.6901C121.781 27.4335 121.999 26.1888 122.323 24.9701C122.833 22.8201 123.303 20.7201 123.833 18.7201C123.833 18.6485 123.826 18.5816 123.819 18.5162C123.806 18.3894 123.794 18.2684 123.833 18.1301C124.103 17.2401 124.513 16.3301 124.833 15.4601C125.733 15.8201 126.293 16.9101 127.013 17.4601C130.033 19.7301 130.443 23.4201 131.393 27.8401C131.783 28.1001 131.833 28.3301 132.483 28.3901L133.793 26.9701C134.343 26.5901 135.533 26.2401 135.793 25.6501L135.793 22.9801C135.793 22.9504 135.788 22.9186 135.782 22.8864C135.771 22.8207 135.76 22.7537 135.793 22.7001C135.843 22.6201 135.973 22.5601 136.053 22.5001C136.291 22.2265 136.631 22.0636 136.993 22.0501C137.183 22.2401 137.323 22.2901 137.433 22.4801C137.543 22.6701 137.433 22.9601 137.543 23.2501C137.828 23.6846 138.199 24.0557 138.633 24.3401C139.013 24.6501 141.723 25.4901 141.803 25.6501L141.803 26.5301C141.583 26.9201 141.763 27.8301 141.583 28.2801C141.116 29.4611 140.322 30.4845 139.293 31.2301C138.37 31.7395 137.376 32.1069 136.343 32.3201C135.831 32.4457 135.265 32.4406 134.729 32.4358C133.599 32.4256 132.601 32.4166 132.513 33.6301C132.925 34.1656 132.823 35.0029 132.719 35.8602C132.671 36.2516 132.623 36.6471 132.623 37.0201C130.883 37.8301 130.913 38.5501 129.783 39.7601L129.893 39.9801C131.106 40.837 132.755 40.2941 133.912 39.9134C133.956 39.8987 134 39.8842 134.043 39.8701C135.203 39.4901 136.323 39.0801 137.323 38.7701ZM166.183 26.5301C167.331 26.6114 168.484 26.4618 169.573 26.0901C171.413 25.4701 173.343 22.2201 174.933 21.0901C176 20.1534 177.175 19.3477 178.433 18.6901L179.853 18.4701L181.273 16.9401C181.273 16.3101 181.093 15.8301 180.833 15.8401L179.523 15.8401C178.953 16.2101 177.903 16.0801 177.223 16.2801C175.983 16.6601 174.683 17.2301 173.513 17.6001L172.513 17.7001C168.903 19.0601 165.133 20.6201 161.693 22.0801C161.665 22.1457 161.634 22.2155 161.6 22.2887C161.361 22.8169 161.043 23.5179 161.473 24.0801C161.863 25.1001 164.933 26.2101 166.183 26.5301ZM12.2132 16.2401L12.0732 16.5001C12.0162 16.6112 11.9887 16.7352 11.9932 16.8601C12.0065 16.9961 12.0666 17.1234 12.1632 17.2201C12.3229 17.3958 12.5043 17.5504 12.7032 17.6801L15.7632 19.8801L15.3832 20.4101L10.1732 20.7001L12.1732 22.1301C12.3593 22.2747 12.5605 22.3988 12.7732 22.5001C12.903 22.5435 13.0434 22.5435 13.1732 22.5001C13.2888 22.4693 13.3952 22.411 13.4832 22.3301C13.5784 22.2597 13.6687 22.1829 13.7532 22.1001L13.9932 22.2601L12.6732 24.1001L12.4332 24.0001C12.4912 23.9042 12.5414 23.8039 12.5832 23.7001C12.6321 23.6002 12.6594 23.4912 12.6632 23.3801C12.6541 23.2498 12.6012 23.1265 12.5132 23.0301C12.3457 22.8519 12.1577 22.6942 11.9532 22.5601L9.95324 21.1001C9.85402 21.033 9.74644 20.9792 9.63324 20.9401C9.5246 20.9156 9.41187 20.9156 9.30324 20.9401C9.18342 20.964 9.06849 21.008 8.96324 21.0701C8.85057 21.1372 8.74648 21.2178 8.65324 21.3101L8.41324 21.1401L9.57324 19.5401L14.1432 19.2901L12.5132 18.1201C12.3214 17.9815 12.1172 17.861 11.9032 17.7601C11.7733 17.7173 11.6331 17.7173 11.5032 17.7601C11.3918 17.7936 11.2893 17.8517 11.2032 17.9301C11.1057 17.9974 11.0152 18.0745 10.9332 18.1601L10.7032 17.9901L12.0032 16.0701L12.2132 16.2401ZM33.7732 19.2901C33.7732 18.1082 34.7313 17.1501 35.9131 17.1501C37.0872 17.161 38.0332 18.1159 38.0332 19.2901L38.0332 32.6101C38.0201 33.5709 37.3504 34.3977 36.4132 34.6101C33.5014 35.3478 30.8006 36.7513 28.5232 38.7101C25.7908 41.0414 23.4303 43.7763 21.5232 46.8201C21.025 47.5932 20.0764 47.9449 19.1946 47.6834C18.3128 47.4219 17.7094 46.6099 17.7132 45.6901C17.7144 45.2898 17.8288 44.898 18.0433 44.5601C20.1996 41.1817 22.8527 38.1477 25.9133 35.5601C28.2327 33.5916 30.9027 32.0784 33.7832 31.1001L33.7832 26.3401C29.5661 27.5825 25.6672 29.7213 22.3532 32.6101C21.4834 33.3557 20.1738 33.255 19.4282 32.3851C18.6826 31.5153 18.7834 30.2057 19.6532 29.4601C21.8999 27.5406 24.3673 25.8957 27.0033 24.5601C29.1497 23.4566 31.4233 22.6204 33.7732 22.0701L33.7732 19.2901ZM41.7332 19.2901L41.7332 32.6901C41.7464 33.6509 42.4161 34.4777 43.3533 34.6901C46.2666 35.4237 48.9684 36.8276 51.2432 38.7901C53.9757 41.1214 56.3362 43.8563 58.2432 46.9001C58.7414 47.6732 59.6901 48.0249 60.5718 47.7634C61.4536 47.5018 62.0571 46.6898 62.0532 45.7701C62.0591 45.3688 61.9441 44.9751 61.7232 44.6401C59.5669 41.2618 56.9138 38.2277 53.8532 35.6401C51.5489 33.6417 48.8846 32.1008 46.0032 31.1001L46.0032 26.3401C50.2172 27.5829 54.1128 29.7217 57.4232 32.6101C58.2932 33.3553 59.6024 33.2543 60.3478 32.3845C61.0932 31.5148 60.9926 30.2055 60.123 29.4599C57.8782 27.5429 55.4145 25.8982 52.7832 24.5601C50.6329 23.4574 48.3561 22.6212 46.0032 22.0701L46.0032 19.2901C45.9262 18.1622 44.9888 17.2866 43.8582 17.2866C42.7277 17.2866 41.7903 18.1622 41.7132 19.2901L41.7332 19.2901ZM68.0032 25.6901L66.8932 24.0001C67.1532 23.4201 67.3532 22.9401 67.4832 22.5801C67.6132 22.2201 67.7732 21.7801 67.9432 21.2601L67.8332 21.1001L66.5032 22.0001C66.429 22.0309 66.3685 22.0878 66.3332 22.1601C66.3066 22.2378 66.3066 22.3223 66.3332 22.4001C66.3489 22.4745 66.3689 22.548 66.3932 22.6201L66.5032 22.8601L66.2532 23.0101L64.7332 20.6501L64.9732 20.4901C64.9732 20.5501 65.0832 20.6201 65.1532 20.7201C65.2079 20.7852 65.2681 20.8454 65.3332 20.9001C65.3997 20.95 65.4801 20.9779 65.5633 20.9801C65.6445 20.9751 65.7218 20.9434 65.7832 20.8901L68.9033 18.8901C68.9655 18.8505 69.0198 18.7996 69.0633 18.7401C69.096 18.66 69.096 18.5702 69.0633 18.4901C69.0396 18.3915 69.0095 18.2947 68.9733 18.2001C68.9733 18.1001 68.9033 18.0201 68.8733 17.9601L69.1233 17.8101L70.7233 20.2901C71.0308 20.7101 71.2238 21.2029 71.2833 21.7201C71.2933 22.1045 71.0943 22.4643 70.7633 22.6601C70.4959 22.8482 70.1668 22.9269 69.8433 22.8801C69.4696 22.7932 69.1249 22.6105 68.8433 22.3501C68.7433 22.6101 68.6433 22.9101 68.5233 23.2501C68.4033 23.5901 68.2833 23.9501 68.1633 24.3101C68.1147 24.461 68.0746 24.6146 68.0433 24.7701C68.0055 24.9109 68.0055 25.0592 68.0433 25.2001C68.0661 25.2715 68.0928 25.3416 68.1233 25.4101L68.2033 25.5701L68.0032 25.6901ZM69.9232 21.4501C70.1827 21.3161 70.3642 21.068 70.4132 20.7801C70.4325 20.4823 70.3437 20.1877 70.1632 19.9501L70.0032 19.7001L68.1532 20.9001L68.3132 21.1301C68.4589 21.4017 68.7075 21.6034 69.0033 21.6901C69.3232 21.7322 69.6468 21.646 69.9033 21.4501L69.9232 21.4501ZM10.2832 29.6201L11.3732 26.9101L11.0932 26.8001C11.0545 26.8939 11.0076 26.9843 10.9532 27.0701C10.9072 27.1484 10.8536 27.2221 10.7932 27.2901C10.7361 27.3544 10.6583 27.3969 10.5732 27.4101C10.5009 27.4275 10.4255 27.4275 10.3532 27.4101L6.89324 26.0201C6.81631 25.9951 6.74732 25.9502 6.69324 25.8901C6.6409 25.8254 6.6158 25.7429 6.62324 25.6601C6.63565 25.5653 6.65571 25.4716 6.68324 25.3801C6.70165 25.2889 6.72502 25.1987 6.75324 25.1101L6.48324 25.0001L5.40324 27.6901L5.67324 27.8001C5.7184 27.7107 5.76848 27.6239 5.82324 27.5401C5.87676 27.4617 5.93699 27.388 6.00324 27.3201C6.05591 27.257 6.13143 27.2175 6.21324 27.2101C6.28539 27.1914 6.36109 27.1914 6.43324 27.2101L9.88324 28.6001C9.9635 28.6235 10.0338 28.6727 10.0832 28.7401C10.1315 28.803 10.1563 28.8808 10.1532 28.9601C10.1412 29.0484 10.1211 29.1354 10.0932 29.2201L10.0032 29.5101L10.2832 29.6201ZM251.783 33.4201C251.583 32.7201 250.863 31.9901 250.583 31.3401L250.583 29.1501C250.352 27.8901 250.241 26.611 250.253 25.3301C250.62 25.2724 250.995 25.3103 251.343 25.4401C252.213 25.7301 254.863 28.9501 254.623 30.2401C254.455 31.4561 253.877 32.5782 252.983 33.4201C252.586 33.4804 252.181 33.4804 251.783 33.4201ZM69.4532 30.0001C69.3544 29.7131 69.2971 29.4133 69.2832 29.1101C69.251 28.8578 69.251 28.6024 69.2832 28.3501L69.0032 28.1901L68.9032 27.8901L70.6932 27.2501L70.7932 27.5501C70.6532 27.6801 70.5032 27.8201 70.3432 27.9901C70.1956 28.1543 70.068 28.3356 69.9632 28.5301C69.8548 28.719 69.7803 28.9254 69.7432 29.1401C69.7051 29.3649 69.7257 29.5957 69.8032 29.8101C69.876 30.0765 70.043 30.3075 70.2732 30.4601C70.48 30.5793 70.7288 30.6012 70.9532 30.5201C71.1409 30.463 71.292 30.3229 71.3633 30.1401C71.4531 29.8902 71.4939 29.6254 71.4833 29.3601L71.4833 28.2301C71.4897 27.8895 71.6054 27.56 71.8133 27.2901C72.0054 27.0454 72.2667 26.8642 72.5633 26.7701C72.755 26.6998 72.9614 26.6791 73.1633 26.7101C73.3782 26.734 73.5859 26.8021 73.7733 26.9101C73.9726 27.0434 74.1483 27.209 74.2933 27.4001C74.468 27.6205 74.6002 27.8714 74.6833 28.1401C74.7712 28.4051 74.8217 28.6811 74.8333 28.9601C74.8515 29.1764 74.8515 29.3938 74.8333 29.6101L75.1133 29.7501L75.2132 30.0601L73.5232 30.6601L73.4232 30.3601C73.5833 30.2201 73.7432 30.0801 73.8932 29.9201C74.035 29.7826 74.1593 29.6281 74.2633 29.4601C74.357 29.3056 74.4246 29.1366 74.4632 28.9601C74.4867 28.7647 74.4662 28.5665 74.4033 28.3801C74.3332 28.1526 74.1842 27.9576 73.9833 27.8301C73.7986 27.7216 73.5755 27.6996 73.3733 27.7701C73.1854 27.8209 73.0331 27.9584 72.9632 28.1401C72.8744 28.3833 72.8337 28.6414 72.8433 28.9001L72.8432 29.5001L72.8432 30.0401C72.8404 30.3781 72.7396 30.7081 72.5533 30.9901C72.3718 31.2628 72.0986 31.4615 71.7832 31.5501C71.5673 31.6202 71.3382 31.6407 71.1133 31.6101C70.884 31.5754 70.6654 31.4899 70.4733 31.3601C70.254 31.2214 70.0638 31.0414 69.9133 30.8301C69.7177 30.579 69.5625 30.299 69.4532 30.0001ZM173.403 36.3701C174.626 36.1362 175.879 36.0991 177.113 36.2601C177.323 36.6511 177.491 37.0635 177.613 37.4901C177.213 37.9101 177.013 38.5601 176.523 38.9101C175.263 39.8401 173.813 40.6201 172.473 41.4301C171.513 42.0101 170.403 41.5601 170.403 43.1801C169.816 44.069 170.399 45.2209 170.843 46.0953C170.973 46.352 171.091 46.5848 171.163 46.78C172.06 49.6926 172.466 52.7342 172.363 55.7801L172.043 55.8901C171.703 56.1201 170.973 55.9701 170.613 55.8901C170.413 55.5601 169.873 55.1901 169.743 54.8901L169.743 53.8901C169.571 53.4996 169.307 53.1565 168.973 52.8901C168.683 52.6701 166.763 52.0401 166.683 51.8901L166.683 51.2401C166.973 51.0201 167.063 50.5601 167.333 50.3601L168.333 50.1401C168.903 49.8641 168.894 48.9701 168.885 48.0716C168.884 47.9608 168.883 47.8499 168.883 47.7401C168.603 47.3201 168.613 46.7001 168.333 46.3201C168.213 46.2101 168.233 46.2101 168.003 46.2101C167.713 46.5801 167.373 46.6001 167.003 46.8601L165.783 48.2201C165.613 48.3401 165.373 48.2801 165.243 48.43C164.963 48.8556 164.705 49.2962 164.473 49.7501L163.053 50.9501C161.648 52.5983 160.152 54.1674 158.573 55.6501C155.573 55.6201 154.393 52.8801 154.523 50.1801C154.685 50.1405 154.845 50.063 155.012 49.9825C155.35 49.8187 155.714 49.6428 156.163 49.7501C156.26 49.7709 156.384 49.8267 156.518 49.8868C156.769 50 157.054 50.1288 157.263 50.0701C157.583 49.9801 157.683 49.5801 157.913 49.4201C158.383 49.0901 158.933 49.0701 159.453 48.7601C159.753 48.5801 160.023 48.1801 160.323 48.0001C160.853 47.6901 161.363 47.6501 161.853 47.3401C163.093 46.5701 164.393 45.6601 165.573 44.8301C166.563 44.1301 168.223 43.8101 168.413 42.3101C167.793 42.1101 167.293 41.8701 167.213 41.1101C167.768 39.9781 168.242 38.8085 168.633 37.6101C168.331 37.4338 167.981 37.3569 167.633 37.3901C167.181 37.5965 166.703 37.7444 166.213 37.8301L166.213 40.5301C166.24 40.7531 166.19 40.9785 166.073 41.1701C165.323 42.3401 163.713 45.3501 162.713 45.5401C162.473 44.8601 161.723 44.6801 161.403 44.1201C161.183 43.7301 161.213 43.2501 161.073 42.9201C160.933 42.5901 160.533 42.1701 160.423 41.8201C159.758 39.7667 160.508 36.5563 160.935 34.7321L160.963 34.6101C161.006 33.7721 160.972 32.932 160.863 32.1001C160.995 32.0035 161.14 31.926 161.293 31.8701C161.427 31.7947 161.58 31.7599 161.733 31.7701C161.983 31.9801 162.343 32.0101 162.603 32.2101C162.732 32.3014 162.893 32.5105 163.072 32.7431C163.461 33.2495 163.935 33.8667 164.353 33.62C165.782 32.8559 167.171 32.0181 168.513 31.1101C169.153 30.6601 169.713 29.8701 170.373 29.4701L172.013 29.2501L172.553 28.4901C173.192 28.0536 173.893 27.7164 174.633 27.4901C175.913 27.1001 179.483 27.5701 180.203 28.1501C180.433 28.3501 180.653 28.8101 180.533 29.0201C179.933 30.0401 179.053 30.2001 178.133 30.8801C177.823 31.1301 177.753 31.6301 177.473 31.8801L176.933 32.0001C176.693 32.1901 176.573 32.6201 176.383 32.8701C176.022 33.2098 175.619 33.5021 175.183 33.7401C174.742 34.1411 174.341 34.5831 173.983 35.0601C173.483 35.5701 172.093 36.4201 171.983 37.1301C172.583 37.0101 172.843 36.5501 173.403 36.3701ZM9.38324 32.12L9.08324 34.1801C8.63524 34.3805 8.19799 34.6041 7.77325 34.85L6.42324 35.6301L6.42324 35.82L8.00324 36.05C8.07911 36.0657 8.15737 36.0657 8.23324 36.05C8.31145 36.0164 8.37522 35.9562 8.41324 35.8801C8.45305 35.8219 8.48342 35.7577 8.50324 35.6901C8.53585 35.6087 8.56259 35.5252 8.58324 35.4401L8.87324 35.4401L8.47324 38.2101L8.19324 38.2101L8.19324 37.9201C8.20352 37.8337 8.20352 37.7464 8.19324 37.6601C8.1808 37.5803 8.13775 37.5086 8.07324 37.4601C8.00719 37.4147 7.93217 37.384 7.85324 37.3701L4.20324 36.84C4.12737 36.8244 4.04911 36.8244 3.97324 36.84C3.89677 36.8763 3.83375 36.9358 3.79324 37.01C3.74002 37.0914 3.6964 37.1787 3.66324 37.2701C3.66324 37.37 3.60324 37.46 3.58324 37.5201L3.30324 37.5201L3.70324 34.66L3.99324 34.66L3.99324 34.93C3.9867 35.0233 3.9867 35.1168 3.99324 35.21C4.00311 35.2959 4.05077 35.3729 4.12324 35.42C4.18665 35.4686 4.26344 35.4965 4.34324 35.5L6.10324 35.75L6.10324 35.6L5.56324 34.85C5.35324 34.56 5.18324 34.33 5.04324 34.17C4.90324 34.01 4.70324 33.78 4.59324 33.67C4.50786 33.5812 4.40112 33.5158 4.28324 33.48C4.28324 33.48 4.20324 33.48 4.16324 33.6C4.11485 33.7299 4.07804 33.8637 4.05324 34.0001L3.80324 34.0001L4.12324 31.7401L4.41324 31.7401C4.38513 31.9759 4.38513 32.2142 4.41324 32.4501C4.46449 32.6653 4.55611 32.8689 4.68324 33.05C4.88324 33.34 5.05324 33.58 5.20324 33.7701L5.77324 34.5201L7.00324 33.8501L8.34324 33.0001C8.46113 32.9315 8.57171 32.8511 8.67324 32.76C8.77703 32.6658 8.86783 32.5582 8.94324 32.44C8.98253 32.3765 9.016 32.3096 9.04324 32.2401C9.04324 32.16 9.04324 32.1001 9.09324 32.04L9.38324 32.12ZM108.573 41.62L108.573 40.2C108.749 39.9181 108.722 39.3432 108.697 38.8287L108.697 38.8282C108.687 38.6129 108.677 38.4082 108.683 38.24L108.683 34.41C108.507 34.3444 108.321 34.3072 108.133 34.3C107.835 35.8356 106.408 36.8847 104.853 36.71C104.603 37.35 103.893 37.81 103.543 38.35L103.323 39.11C102.363 40.63 101.153 41.92 100.153 43.48C99.6632 44.29 98.8132 44.82 98.7332 46L99.0632 46.1C99.7932 46.58 101.193 46.05 101.793 45.66C102.393 45.27 103.053 44.72 103.653 44.35C104.329 44.0493 105.024 43.7921 105.733 43.58C106.156 43.323 106.557 43.032 106.933 42.71C107.353 42.43 108.363 42.07 108.573 41.62ZM70.8832 35.19L71.1732 38.09L71.5432 38.0601C71.5331 37.9603 71.5331 37.8598 71.5432 37.7601C71.5339 37.6703 71.5339 37.5798 71.5432 37.4901C71.5633 37.4109 71.609 37.3405 71.6732 37.2901C71.7434 37.2491 71.8222 37.2251 71.9032 37.2201L75.6032 36.8301C75.682 36.8097 75.7645 36.8097 75.8432 36.8301C75.9173 36.8628 75.9751 36.9241 76.0032 37C76.015 37.1 76.0117 37.2011 75.9932 37.3C76.0194 37.3886 76.0395 37.4788 76.0532 37.57L76.3432 37.57L76.0432 34.67L75.7532 34.67L75.7532 34.98C75.7587 35.07 75.7587 35.1601 75.7532 35.25C75.7319 35.3287 75.6864 35.3986 75.6232 35.45C75.5574 35.4925 75.4815 35.5167 75.4032 35.52L71.6932 35.91C71.6176 35.9276 71.5389 35.9276 71.4632 35.91C71.3839 35.8818 71.3214 35.8194 71.2932 35.74C71.2548 35.6582 71.2311 35.5702 71.2232 35.48C71.1632 35.35 71.1632 35.25 71.1632 35.19L70.8832 35.19ZM53.7333 47.9301C54.8916 49.7599 55.8951 51.6832 56.7332 53.6801L56.8132 53.68C57.1064 54.3606 57.0141 55.146 56.5712 55.7401C56.1282 56.3343 55.4019 56.6469 54.6659 56.5603C53.9299 56.4736 53.2961 56.0008 53.0032 55.3201C51.6253 51.9313 49.5855 48.8513 47.0032 46.2601C45.6154 44.8555 43.8957 43.8237 42.0032 43.2601L42.0032 46.6301C42.0058 47.4171 42.4502 48.1361 43.1532 48.4901L43.6832 48.8101C44.665 49.465 45.5303 50.2796 46.2432 51.22C47.9076 53.4709 49.0611 56.0577 49.6232 58.8C49.9117 59.5594 49.7294 60.4172 49.1571 60.9936C48.5848 61.57 47.7283 61.7585 46.9669 61.4755C46.2056 61.1925 45.6801 60.4903 45.6232 59.6801C45.2 57.5403 44.3125 55.5195 43.0232 53.7601C42.4332 53.0401 41.2132 51.7601 39.8132 51.7601C38.4132 51.7601 37.1932 53.0001 36.6032 53.7601C35.3165 55.5209 34.4292 57.5412 34.0032 59.6801C33.9464 60.4903 33.4209 61.1925 32.6595 61.4755C31.8982 61.7585 31.0417 61.57 30.4694 60.9936C29.8971 60.4172 29.7148 59.5594 30.0032 58.8001C30.5611 56.0405 31.7222 53.4384 33.4032 51.1801C34.1196 50.2391 34.9883 49.4245 35.9732 48.7701L36.4932 48.4501C37.2336 48.1228 37.7199 47.3991 37.7432 46.5901L37.7432 43.2201C35.8503 43.7825 34.1303 44.8145 32.7432 46.2201C30.1933 48.8174 28.1875 51.8976 26.8432 55.2801C26.3904 56.3322 25.1703 56.8179 24.1182 56.365C23.0661 55.9122 22.5804 54.6921 23.0332 53.64C23.8673 51.6413 24.8709 49.7176 26.0332 47.8901C27.1173 46.1905 28.396 44.6233 29.8432 43.2201C31.1974 41.902 32.758 40.8143 34.4632 40.0001C35.4999 39.5306 36.592 39.1946 37.7132 39.0001L37.7132 37.7601C37.7903 36.6321 38.7277 35.7566 39.8582 35.7566C40.9888 35.7566 41.9262 36.6321 42.0032 37.7601L42.0033 39.0001C43.1346 39.1928 44.2368 39.5289 45.2832 40.0001C46.9999 40.822 48.5679 41.9237 49.9232 43.2601C51.3734 44.6606 52.6523 46.2283 53.7333 47.9301ZM269.713 37.68C268.873 38.78 265.393 38.68 263.923 39.32C261.923 40.15 259.743 40.83 257.693 41.72C256.323 42.32 254.903 43.13 253.533 43.72L252.443 43.94C251.853 44.19 251.213 44.8 250.693 45.03L249.163 45.14C248.613 45.39 248.343 45.93 247.963 46.35C247.963 48.35 248.963 48.87 249.493 49.97C249.583 50.19 249.493 50.42 249.713 50.72C250.007 50.9436 250.35 51.0943 250.713 51.16C251.323 51.2868 252.14 50.874 252.717 50.5825C252.868 50.506 253.003 50.4379 253.113 50.39C255.113 49.51 256.683 48 258.473 46.89C259.203 46.4545 259.974 46.0895 260.773 45.8C261.563 45.53 262.143 45.8 262.843 45.47C263.292 45.2826 263.516 45.0538 263.702 44.8643C264.041 44.5181 264.252 44.3029 265.473 44.71C265.553 45 265.733 45.24 265.793 45.47C265.913 45.8846 265.831 46.3526 265.754 46.7901C265.69 47.1544 265.63 47.4973 265.693 47.77C265.911 48.2891 266.02 48.8473 266.013 49.41C265.763 49.68 265.663 50.16 265.363 50.41C264.21 51.0614 262.95 51.5048 261.643 51.72C261.261 51.821 260.839 51.762 260.428 51.7046C259.904 51.6314 259.399 51.5608 259.023 51.83L258.803 51.83C258.781 52.1049 258.859 52.3784 259.023 52.6C259.343 53.6 259.953 53.25 261.023 53.6C261.321 53.6974 261.614 53.8767 261.919 54.0636C262.712 54.5487 263.587 55.0847 264.843 54.37C265.213 54.16 265.343 53.63 265.843 53.49C266.21 53.3834 266.564 53.3969 266.892 53.4093C267.332 53.4261 267.724 53.441 268.033 53.16C268.553 52.91 268.643 52.25 268.903 51.74C269.194 51.1847 269.428 50.6018 269.603 50C269.694 49.3639 269.579 48.7155 269.273 48.15C269.203 47.71 269.133 47.27 269.053 46.83C268.643 45.83 267.993 45.26 267.963 43.77C267.989 43.5757 268.114 43.4089 268.293 43.33C269.596 42.9707 270.942 42.789 272.293 42.79C272.823 42.26 273.533 41.91 273.933 41.26C274.203 40.84 274.203 40.26 274.483 39.84C274.483 38.84 274.113 38.68 273.723 38.09C272.957 38.09 272.334 37.9861 271.716 37.8828C271.092 37.7785 270.472 37.675 269.713 37.68ZM230.363 40.4101C230.071 40.1826 229.824 39.925 229.58 39.6708C228.923 38.9862 228.29 38.3255 226.853 38.3401C226.758 38.4258 226.65 38.4967 226.533 38.5501C226.423 40.2145 226.769 41.8775 227.533 43.3601C227.613 43.6901 227.683 44.0201 227.753 44.3601C227.801 44.451 227.873 44.5638 227.956 44.6933C228.33 45.2755 228.92 46.1947 228.413 46.9801C228.533 47.9801 230.213 48.3501 231.413 47.9801C232.679 47.5489 233.81 46.7939 234.693 45.7901C234.603 42.9401 232.003 41.7001 230.363 40.4101ZM183.463 43.5801C182.313 42.0201 181.103 40.5801 178.323 40.6301C178.006 40.7569 177.66 40.7949 177.323 40.7401C176.783 43.0101 176.843 44.8301 177.983 46.5301L178.853 47.3001C179.503 48.3001 179.853 49.2001 181.043 49.6001C182.025 50.2352 183.163 49.3257 183.846 48.78C183.991 48.6642 184.115 48.5648 184.213 48.5001L184.226 48.4506C184.399 47.7683 184.904 45.7857 184.543 45.2201C184.503 44.3101 183.863 44.14 183.463 43.5801ZM4.66324 42.1401L4.66324 41.8501L3.32324 42.0001L3.94324 46.5601L4.22324 46.5601L4.22324 46.2901C4.21408 46.197 4.21408 46.1032 4.22324 46.0101C4.24203 45.9248 4.28758 45.8477 4.35324 45.7901C4.42239 45.7571 4.49691 45.7368 4.57324 45.7301L8.25324 45.3001C8.33183 45.2789 8.41465 45.2789 8.49324 45.3001C8.5664 45.3374 8.62589 45.3969 8.66324 45.4701C8.69573 45.5514 8.72246 45.635 8.74324 45.7201C8.80324 45.8401 8.80324 45.9301 8.80324 46.0001L9.09324 46.0001L8.55324 41.0901L6.91324 41.1701L6.91324 41.4401C7.1164 41.4989 7.31386 41.5759 7.50324 41.6701C7.71384 41.7531 7.91229 41.8641 8.09324 42.0001C8.21388 42.0388 8.30985 42.1311 8.35324 42.2501C8.38324 42.3301 8.44324 42.4301 8.44324 42.5301C8.45126 42.6333 8.45126 42.7369 8.44324 42.8401L8.44324 43.1501C8.4559 43.2931 8.4559 43.437 8.44324 43.5801C8.44702 43.6738 8.42634 43.7668 8.38324 43.8501C8.33732 43.923 8.2661 43.9764 8.18324 44.0001C8.04078 44.0437 7.89219 44.064 7.74324 44.0601L6.23324 44.2401L6.17324 43.7001C6.15795 43.5739 6.15795 43.4463 6.17324 43.3201C6.19423 43.208 6.24619 43.1041 6.32324 43.0201C6.4076 42.9301 6.50977 42.8585 6.62324 42.8101C6.7415 42.741 6.86965 42.6904 7.00324 42.6601L7.00324 42.3701L4.90324 42.6501L4.90324 42.9401C5.03198 42.9435 5.15973 42.9636 5.28324 43.0001C5.36737 43.027 5.44795 43.0639 5.52324 43.1101C5.61827 43.1841 5.69379 43.2802 5.74324 43.3901C5.7862 43.503 5.81639 43.6204 5.83324 43.7401L5.89324 44.2801L3.89324 44.5101L3.80324 43.7601L3.80324 43.4401C3.79295 43.337 3.79295 43.2332 3.80324 43.1301C3.83971 42.9158 3.94503 42.7192 4.10324 42.5701C4.26293 42.3947 4.45255 42.2491 4.66324 42.1401ZM74.4032 46.59L74.4032 46.3C74.6681 46.2415 74.9237 46.1473 75.1632 46.02C75.4432 45.88 75.5932 45.75 75.6332 45.61C75.6732 45.47 75.6332 45.43 75.6932 45.32C75.7003 45.2235 75.7003 45.1266 75.6932 45.03L75.6932 44.85L71.6032 44.36C71.5273 44.3447 71.4491 44.3447 71.3732 44.36C71.2885 44.3868 71.2193 44.4487 71.1832 44.53L71.1831 44.5303C71.1803 44.5364 71.1223 44.663 71.0832 44.78L71.0032 45.08L70.7132 45.08L71.0632 42.15L71.3432 42.15L71.3432 42.45C71.3298 42.5395 71.3298 42.6305 71.3432 42.72C71.3605 42.8032 71.4065 42.8776 71.4732 42.93C71.5434 42.9802 71.627 43.008 71.7132 43.01L75.8332 43.5L75.8332 43.33C75.8389 43.2301 75.8389 43.13 75.8332 43.03L75.8332 42.73C75.7796 42.5218 75.6515 42.3403 75.4732 42.22C75.2668 42.0463 75.0421 41.8954 74.8032 41.77L74.8032 41.48L76.3032 41.66L75.7032 46.73L74.4032 46.59ZM72.6932 55.4501C72.6972 55.53 72.6972 55.6101 72.6932 55.6901L73.0032 55.7901L73.6132 53.9501L73.3432 53.8501C73.2859 54.007 73.2012 54.1526 73.0933 54.2801C73.0349 54.3502 72.942 54.3812 72.8532 54.3601C72.696 54.2302 72.558 54.0787 72.4432 53.9101C72.2332 53.6401 71.8532 53.1601 71.3332 52.4601L72.4632 52.2601L73.2132 52.1601L73.8132 52.1601C73.8732 52.1801 73.8732 52.2401 73.8732 52.3501C73.8497 52.5353 73.8026 52.7168 73.7332 52.8901L74.0032 53.0001L75.1632 50.2201L74.8932 50.1201L74.7632 50.3401C74.7199 50.417 74.6622 50.4849 74.5932 50.5401C74.5065 50.6069 74.4126 50.664 74.3132 50.7101C74.1852 50.7661 74.0509 50.8064 73.9132 50.8301L72.9132 51.0001L71.8432 51.1401L71.5232 51.2001L71.3232 51.2001C71.2736 51.2087 71.2229 51.2087 71.1732 51.2001L70.9632 51.1301L70.1032 50.8001C70.0241 50.7736 69.9523 50.7291 69.8932 50.6701C69.8456 50.5987 69.818 50.5158 69.8132 50.4301C69.8056 50.3402 69.8056 50.2499 69.8132 50.1601C69.8932 50.0301 69.8932 49.9401 69.8932 49.8701L69.6232 49.7701L68.5732 52.5101L68.8432 52.6201C68.8732 52.5601 68.9232 52.4701 68.9932 52.3601L69.1532 52.1301C69.2134 52.0696 69.2898 52.0279 69.3732 52.0101C69.4514 51.9861 69.535 51.9861 69.6132 52.0101L70.3132 52.2701C70.4958 52.3403 70.6729 52.4239 70.8432 52.5201C70.9787 52.6424 71.0995 52.78 71.2032 52.9301L71.8432 53.7901L72.3832 54.5301L72.5832 54.8701C72.6349 54.9815 72.6719 55.0992 72.6932 55.2201C72.7034 55.2964 72.7034 55.3738 72.6932 55.4501ZM6.84324 50.0001C6.57811 49.9694 6.30955 50.0073 6.06324 50.1101C5.66672 50.2132 5.36153 50.53 5.27324 50.9301C5.21121 51.4557 5.29421 51.9883 5.51324 52.4701L6.51324 55.1701L6.78324 55.0701L6.78324 54.8101C6.77462 54.7169 6.77462 54.6232 6.78324 54.5301C6.77696 54.4426 6.80575 54.3563 6.86324 54.2901C6.91896 54.2366 6.98316 54.1926 7.05324 54.1601L10.5032 52.8001C10.5794 52.7881 10.657 52.7881 10.7332 52.8001C10.8167 52.8164 10.8914 52.8627 10.9432 52.9301C10.9984 52.9958 11.0423 53.0701 11.0732 53.1501C11.1332 53.2501 11.2132 53.3401 11.2132 53.4001L11.4832 53.3001L10.4832 50.6101L10.2132 50.7201C10.2732 50.7901 10.2732 50.8901 10.2732 51.0001C10.2797 51.0833 10.2797 51.1669 10.2732 51.2501C10.2795 51.3375 10.2507 51.4239 10.1932 51.4901C10.1429 51.5499 10.0772 51.5948 10.0032 51.6201L8.64324 52.1401L8.49324 51.7501C8.38041 51.4491 8.23628 51.1609 8.06324 50.8901C7.91493 50.6577 7.72907 50.4516 7.51324 50.2801C7.31252 50.1399 7.08404 50.0444 6.84324 50.0001ZM6.01324 51.9201C6.18441 51.6588 6.44331 51.4673 6.74324 51.3801C7.02497 51.2503 7.34866 51.2466 7.63324 51.3701C7.9141 51.5451 8.12331 51.8146 8.22324 52.1301L8.27324 52.2701L6.12324 53.1001L6.01324 52.8101C5.87394 52.5298 5.87394 52.2004 6.01324 51.9201ZM165.063 71.9101L164.473 71.9901C164.27 72.0205 164.072 72.0776 163.883 72.1601C163.715 72.2405 163.578 72.3741 163.493 72.5401C163.419 72.7242 163.381 72.9214 163.383 73.1201L163.383 76.2001C162.618 76.5504 161.821 76.8283 161.003 77.0301C160.244 77.2181 159.465 77.3155 158.683 77.3201C157.881 77.3184 157.086 77.1622 156.343 76.8601C155.594 76.5655 154.913 76.1195 154.343 75.5501C153.754 74.9612 153.295 74.2563 152.993 73.4801C152.646 72.6126 152.476 71.6843 152.493 70.7501C152.488 69.8095 152.661 68.8763 153.003 68.0002C153.308 67.1997 153.771 66.4685 154.363 65.8501C154.924 65.2482 155.606 64.7711 156.363 64.4501C157.161 64.1169 158.018 63.9469 158.883 63.9501C159.517 63.9374 160.149 64.0286 160.753 64.2201C161.243 64.3821 161.716 64.5932 162.163 64.8501L162.523 64.2401L163.243 64.2401L163.323 68.6801L162.583 68.6801C162.455 68.1846 162.298 67.697 162.113 67.22C161.939 66.7616 161.7 66.3306 161.403 65.9401C161.115 65.5645 160.75 65.2544 160.333 65.0301C159.868 64.7961 159.353 64.6794 158.833 64.6901C158.239 64.6826 157.652 64.8199 157.123 65.0901C156.605 65.3693 156.159 65.7667 155.823 66.2501C155.434 66.8145 155.149 67.4446 154.983 68.1101C154.775 68.9235 154.675 69.7606 154.683 70.6001C154.678 71.3735 154.779 72.144 154.983 72.89C155.148 73.5558 155.433 74.186 155.823 74.7501C156.185 75.2697 156.661 75.7005 157.213 76.0101C157.793 76.3235 158.444 76.4819 159.103 76.4701C159.595 76.4785 160.083 76.3936 160.543 76.2201C160.881 76.1138 161.194 75.9403 161.463 75.7101C161.51 75.3988 161.537 75.0848 161.543 74.7701L161.543 73.3001C161.55 73.0726 161.516 72.8458 161.443 72.6301C161.373 72.4287 161.215 72.2704 161.013 72.2001C160.758 72.0935 160.488 72.0228 160.213 71.9901L159.413 71.9101L159.413 71.2701L165.003 71.2701L165.063 71.9101ZM251.283 72.1901C251.149 71.8213 250.946 71.4817 250.683 71.1901C250.419 70.9196 250.116 70.6904 249.783 70.5101C249.463 70.3124 249.129 70.1386 248.783 69.9901C248.393 69.8101 247.983 69.6501 247.563 69.4901C247.124 69.3322 246.694 69.152 246.273 68.9501C245.83 68.7546 245.444 68.4481 245.153 68.0601C244.889 67.6534 244.756 67.175 244.773 66.6901C244.769 66.1774 244.988 65.688 245.373 65.3501C245.77 64.9912 246.289 64.798 246.823 64.8101C247.299 64.7931 247.771 64.8999 248.193 65.1201C248.561 65.3245 248.881 65.6039 249.133 65.9401C249.401 66.3085 249.616 66.7124 249.773 67.1401C249.933 67.5301 250.093 68.0501 250.223 68.5301L250.943 68.5301L250.853 64.3001L250.143 64.3001L249.773 64.9101C249.371 64.6605 248.945 64.4496 248.503 64.2801C248.001 64.0924 247.469 64.0008 246.933 64.0101C246.431 64.0088 245.932 64.1003 245.463 64.2801C245.01 64.4409 244.592 64.6889 244.233 65.0101C243.88 65.3225 243.594 65.7036 243.393 66.1301C243.192 66.555 243.089 67.0199 243.093 67.4901C243.06 68.2243 243.271 68.9488 243.693 69.5501C244.137 70.1045 244.71 70.5408 245.363 70.8201C245.733 70.9801 246.163 71.1601 246.663 71.3501L248.003 71.8601C248.524 72.0518 248.971 72.4015 249.283 72.8601C249.728 73.5601 249.835 74.423 249.573 75.2101C249.487 75.4743 249.34 75.7142 249.143 75.9101C248.933 76.1209 248.676 76.2786 248.393 76.3701C248.044 76.4794 247.679 76.5334 247.313 76.5301C246.811 76.5401 246.314 76.4304 245.863 76.2101C245.443 76.0032 245.069 75.7141 244.763 75.3601C244.442 74.9941 244.176 74.5831 243.973 74.1401C243.759 73.668 243.581 73.1799 243.443 72.6801L242.723 72.6801L242.863 77.0301L243.573 77.0301L243.963 76.3801C244.427 76.6544 244.92 76.8758 245.433 77.0401C245.98 77.2284 246.555 77.3263 247.133 77.3301C248.265 77.3642 249.368 76.9716 250.223 76.2301C251.036 75.5344 251.491 74.5094 251.463 73.4401C251.47 73.0165 251.409 72.5946 251.283 72.1901ZM238.823 77.0001L242.273 77.0001L242.283 76.3801C242.088 76.377 241.894 76.3535 241.703 76.3101C241.499 76.2831 241.3 76.2258 241.113 76.1401C240.89 76.0213 240.679 75.8806 240.483 75.7201C240.214 75.4883 239.975 75.2228 239.773 74.9301C239.16 74.1234 238.65 73.4334 238.243 72.8601L236.673 70.7601C237.104 70.6383 237.522 70.4776 237.923 70.2801C238.289 70.1101 238.627 69.8841 238.923 69.6101C239.219 69.3319 239.449 68.9899 239.593 68.6101C239.749 68.1948 239.824 67.7535 239.813 67.3101C239.856 66.3678 239.39 65.4749 238.593 64.9701C238.199 64.7233 237.766 64.5442 237.313 64.4401C236.818 64.3259 236.311 64.2689 235.803 64.2701L229.933 64.2701L229.933 64.9101C230.135 64.9262 230.336 64.9563 230.533 65.0001C230.726 65.0327 230.917 65.0795 231.103 65.1401C231.287 65.1976 231.437 65.3328 231.513 65.5101C231.576 65.6899 231.607 65.8796 231.603 66.0701L231.603 75.2701C231.611 75.4671 231.57 75.6631 231.483 75.8401C231.401 75.997 231.266 76.1207 231.103 76.1901C230.921 76.2474 230.733 76.2843 230.543 76.3001L229.933 76.3601L229.933 77.0001L235.273 77.0001L235.273 76.3401C235.045 76.3362 234.818 76.3161 234.593 76.2801C234.403 76.2632 234.216 76.2264 234.033 76.1701C233.854 76.1063 233.704 75.978 233.613 75.8101C233.551 75.6335 233.521 75.4473 233.523 75.2601L233.523 71.2601L234.823 71.2601C235.553 72.1801 236.263 73.0701 236.823 73.9301C237.383 74.7901 238.073 75.8201 238.823 77.0001ZM283.583 64.9201C283.416 64.9438 283.252 64.984 283.093 65.0401C282.927 65.0916 282.769 65.1656 282.623 65.2601C282.454 65.3556 282.293 65.466 282.143 65.5901C281.968 65.7808 281.807 65.9847 281.663 66.2001C281.193 66.8601 280.763 67.5301 280.363 68.2001L278.893 70.7801C278.71 71.0681 278.563 71.3769 278.453 71.7001C278.366 72.0259 278.329 72.3631 278.343 72.7001L278.343 75.1301C278.338 75.3248 278.382 75.5177 278.473 75.6901C278.573 75.8629 278.728 75.9969 278.913 76.0701C279.132 76.1418 279.356 76.1986 279.583 76.2401C279.839 76.303 280.1 76.3399 280.363 76.3501L280.363 77.0001L274.413 77.0001L274.413 76.3601L275.163 76.3001C275.401 76.2868 275.636 76.2431 275.863 76.1701C276.051 76.1064 276.208 75.9743 276.303 75.8001C276.395 75.6246 276.44 75.4281 276.433 75.2301L276.433 72.1301C276.405 71.9474 276.344 71.7713 276.253 71.6101C276.128 71.3199 275.987 71.0362 275.833 70.7601C275.483 70.0701 275.083 69.3201 274.643 68.5101C274.203 67.7001 273.833 67.0101 273.513 66.4401C273.357 66.1666 273.18 65.9058 272.983 65.6601C272.831 65.4869 272.656 65.3355 272.463 65.2101C272.302 65.1129 272.127 65.042 271.943 65.0001C271.767 64.9531 271.586 64.9229 271.403 64.9101L271.403 64.2701L276.833 64.2701L276.833 64.9101C276.4 64.9036 275.967 64.9472 275.543 65.0401C275.293 65.1101 275.163 65.2101 275.163 65.3401C275.172 65.4065 275.192 65.4709 275.223 65.5301C275.266 65.6467 275.316 65.7602 275.373 65.8701L275.643 66.4001L276.003 67.0001L276.853 68.6001L277.993 70.6601Q279.403 68.3901 280.153 67.1201C280.47 66.6509 280.72 66.1391 280.893 65.6001C280.9 65.4699 280.84 65.3453 280.733 65.2701C280.616 65.176 280.479 65.1078 280.333 65.0701C280.149 65.028 279.962 64.9979 279.773 64.9801L279.203 64.9801L279.203 64.3401L283.633 64.3401L283.583 64.9201ZM105.813 67.4301C105.825 68.0394 105.691 68.6428 105.423 69.1901C105.171 69.6944 104.801 70.1302 104.343 70.4601C103.895 70.7949 103.391 71.0456 102.853 71.2001C102.29 71.3546 101.708 71.432 101.123 71.4301L99.7032 71.4301L99.7032 75.2801C99.6969 75.4685 99.731 75.656 99.8032 75.8301C99.8908 76.0063 100.046 76.1398 100.233 76.2001C100.422 76.258 100.616 76.2949 100.813 76.3101C101.061 76.3484 101.312 76.3684 101.563 76.3701L101.563 77.0001L96.1132 77.0001L96.1132 76.3601L96.7232 76.3001C96.9167 76.2841 97.1078 76.2472 97.2932 76.1901C97.4547 76.118 97.5882 75.9951 97.6732 75.8401C97.7602 75.6631 97.8015 75.4671 97.7932 75.2701L97.7932 66.0901C97.795 65.8997 97.7646 65.7104 97.7033 65.5301C97.6263 65.3476 97.4725 65.2084 97.2832 65.1501C97.0645 65.079 96.8405 65.0255 96.6133 64.9901L96.0032 64.9201L96.0032 64.2801L101.803 64.2801C102.833 64.2354 103.847 64.5383 104.683 65.1401C105.416 65.6693 105.839 66.5268 105.813 67.4301ZM118.003 73.2701L117.733 77.0001L107.183 77.0001L107.183 76.3601C107.363 76.3601 107.603 76.3601 107.903 76.2901C108.101 76.2726 108.295 76.2323 108.483 76.1701C108.65 76.098 108.79 75.9756 108.883 75.8201C108.961 75.6474 108.999 75.4594 108.993 75.2701L108.993 66.1301C108.999 65.9515 108.965 65.7739 108.893 65.6101C108.809 65.4365 108.663 65.3009 108.483 65.2301C108.273 65.1433 108.056 65.0763 107.833 65.0301C107.619 64.9779 107.402 64.9412 107.183 64.9201L107.183 64.2801L117.003 64.2801L117.003 67.3401L116.333 67.3401C116.171 66.8212 115.91 66.3389 115.563 65.9201C115.299 65.514 114.892 65.2215 114.423 65.1001C114.243 65.1001 114.023 65.1001 113.763 65.0401L110.903 65.0401L110.903 70.0401L112.333 70.0401C112.672 70.0592 113.011 70.0152 113.333 69.9101C113.554 69.8181 113.747 69.6699 113.893 69.4801C114.044 69.2668 114.159 69.0304 114.233 68.7801C114.319 68.5164 114.379 68.2452 114.413 67.9701L115.073 67.9701L115.073 72.9701L114.413 72.9701C114.385 72.6604 114.322 72.355 114.223 72.0601C114.152 71.8105 114.04 71.5741 113.893 71.3601C113.734 71.1468 113.515 70.9865 113.263 70.9001C112.96 70.8191 112.647 70.7821 112.333 70.7901L110.903 70.7901L110.903 74.6001C110.897 74.9021 110.924 75.2038 110.983 75.5001C111.025 75.7001 111.139 75.8779 111.303 76.0001C111.491 76.127 111.708 76.2028 111.933 76.2201C112.313 76.2403 112.694 76.2403 113.073 76.2201L113.853 76.2201C114.123 76.2376 114.394 76.2376 114.663 76.2201C114.899 76.1944 115.133 76.1509 115.363 76.0901C115.554 76.0578 115.731 75.971 115.873 75.8401C116.216 75.4465 116.505 75.0094 116.733 74.5401C116.961 74.1297 117.155 73.7016 117.313 73.2601L118.003 73.2701ZM127.513 77.0001L131.083 77.0001L131.073 76.3901C130.878 76.3875 130.684 76.364 130.493 76.3201C130.292 76.29 130.096 76.2293 129.913 76.1401C129.68 76.0188 129.459 75.8748 129.253 75.7101C128.965 75.4871 128.706 75.2284 128.483 74.9401C127.813 74.1001 127.173 73.2901 126.583 72.5601C125.993 71.8301 125.233 70.9201 124.323 69.9201C124.983 69.3001 125.643 68.6101 126.323 67.8701L128.243 65.6901C128.395 65.5206 128.583 65.3873 128.793 65.3001C128.996 65.1958 129.211 65.1185 129.433 65.0701L129.763 65.0001C129.843 64.9953 129.923 64.9953 130.003 65.0001L130.173 64.9401L130.293 64.9401L130.293 64.3001L125.523 64.3001L125.523 64.9401L125.843 64.9401C125.973 64.9501 126.123 65.0101 126.293 65.0101C126.425 65.0429 126.552 65.0899 126.673 65.1501C126.783 65.2101 126.843 65.2801 126.843 65.3701C126.82 65.6859 126.705 65.988 126.513 66.2401C126.333 66.5501 125.923 67.0801 125.513 67.5501C125.103 68.0201 124.633 68.5201 124.103 69.0201C123.573 69.5201 123.053 69.9901 122.513 70.4501L122.333 70.4501L122.333 66.0401C122.33 65.8552 122.364 65.6715 122.433 65.5001C122.51 65.3258 122.66 65.1941 122.843 65.1401C123.019 65.0773 123.199 65.0304 123.383 65.0001C123.588 64.9593 123.795 64.9326 124.003 64.9201L124.003 64.2801L118.753 64.2801L118.753 64.9201C118.95 64.937 119.144 64.9739 119.333 65.0301C119.532 65.0813 119.725 65.1482 119.913 65.2301C120.088 65.3037 120.232 65.4341 120.323 65.6001C120.395 65.7674 120.429 65.9482 120.423 66.1301L120.423 75.3101C120.428 75.5004 120.387 75.6891 120.303 75.8601C120.219 76.0172 120.08 76.1382 119.913 76.2001C119.734 76.2673 119.545 76.3045 119.353 76.3101L118.753 76.3601L118.753 77.0001L124.013 77.0001L124.013 76.4101C123.797 76.4037 123.583 76.3735 123.373 76.3201C123.196 76.2809 123.022 76.2274 122.853 76.1601C122.679 76.0896 122.537 75.9581 122.453 75.7901C122.375 75.6248 122.337 75.443 122.343 75.2601L122.343 70.8301L122.573 70.8301C123.493 71.7701 124.373 72.7801 125.213 73.8301C126.053 74.8801 126.823 75.9401 127.513 77.0001ZM137.463 77.0001L131.713 77.0001L131.713 76.3601L132.423 76.3101C132.641 76.3044 132.856 76.2674 133.063 76.2001C133.238 76.1486 133.389 76.0393 133.493 75.8901C133.596 75.7184 133.645 75.5198 133.633 75.3201L133.633 66.1101C133.635 65.9318 133.601 65.755 133.533 65.5901C133.425 65.417 133.258 65.2891 133.063 65.2301C132.841 65.1498 132.614 65.083 132.383 65.0301C132.163 64.9761 131.939 64.9394 131.713 64.9201L131.713 64.2801L137.463 64.2801L137.463 64.9201C137.239 64.9321 137.015 64.9555 136.793 64.9901C136.567 65.0241 136.343 65.0742 136.123 65.1401C135.927 65.1862 135.76 65.3135 135.663 65.4901C135.583 65.655 135.541 65.8365 135.543 66.0201L135.543 75.2401C135.543 75.4214 135.588 75.6 135.673 75.7601C135.781 75.9247 135.939 76.0508 136.123 76.1201C136.323 76.1875 136.526 76.241 136.733 76.2801C136.973 76.3343 137.218 76.3645 137.463 76.3701L137.463 77.0001ZM150.933 65.0601C151.19 64.9946 151.45 64.9478 151.713 64.9201L151.713 64.3401L146.533 64.3401L146.533 64.9801C146.825 65.0101 147.114 65.0705 147.393 65.1601C147.68 65.2322 147.956 65.3433 148.213 65.4901C148.431 65.7066 148.575 65.9867 148.623 66.2901C148.73 66.8536 148.777 67.4268 148.763 68.0001L148.763 74.0001L141.603 64.2801L137.973 64.2801L137.973 64.9201C138.28 64.9515 138.58 65.029 138.863 65.1501C139.182 65.2656 139.477 65.4385 139.733 65.6601C139.907 65.8377 140.037 66.0535 140.113 66.2901C140.208 66.5564 140.256 66.8374 140.253 67.1201L140.253 73.3801C140.274 73.969 140.237 74.5584 140.143 75.1401C140.09 75.4377 139.939 75.7088 139.713 75.9101C139.493 76.048 139.249 76.143 138.993 76.1901C138.728 76.2687 138.457 76.3255 138.183 76.3601L138.183 77.0001L143.393 77.0001L143.393 76.3701C143.105 76.3404 142.821 76.2835 142.543 76.2001C142.238 76.136 141.948 76.0101 141.693 75.8301C141.47 75.5964 141.323 75.2997 141.273 74.9801C141.166 74.4234 141.119 73.8568 141.133 73.2901L141.133 66.7201L148.853 77.1501L149.643 77.1501L149.643 67.8201C149.632 67.2779 149.669 66.7358 149.753 66.2001C149.778 65.8657 149.936 65.5555 150.193 65.3401C150.426 65.213 150.675 65.1188 150.933 65.0601ZM182.623 65.0301C182.87 64.9751 183.121 64.9383 183.373 64.9201L183.473 64.2801L178.263 64.2801L178.263 64.9201C178.543 64.9469 178.82 64.9937 179.093 65.0601C179.397 65.1279 179.688 65.2462 179.953 65.4101C180.182 65.6318 180.33 65.9241 180.373 66.2401C180.481 66.7765 180.528 67.3232 180.513 67.8701L180.513 73.0701C180.512 73.4319 180.461 73.7919 180.363 74.1401C180.255 74.5033 180.078 74.8426 179.843 75.1401C179.562 75.4961 179.198 75.7776 178.783 75.9601C178.259 76.1831 177.693 76.2889 177.123 76.2701C176.553 76.2983 175.985 76.1921 175.463 75.9601C175.07 75.7778 174.727 75.5034 174.463 75.1601C174.247 74.8422 174.095 74.4857 174.013 74.1101C173.943 73.7576 173.907 73.3994 173.903 73.0401L173.903 66.0401C173.9 65.8519 173.934 65.665 174.003 65.4901C174.08 65.321 174.225 65.1933 174.403 65.1401C174.582 65.0775 174.766 65.0307 174.953 65.0001C175.158 64.9593 175.365 64.9326 175.573 64.9201L175.573 64.2801L170.313 64.2801L170.313 64.9201C170.509 64.9363 170.703 64.9698 170.893 65.0201C171.094 65.0513 171.287 65.1191 171.463 65.2201C171.642 65.3002 171.79 65.4373 171.883 65.6101C171.96 65.7723 171.998 65.9505 171.993 66.1301L171.993 73.6501C171.992 74.1231 172.095 74.5907 172.293 75.0201C172.506 75.4726 172.817 75.8722 173.203 76.1901C173.648 76.5518 174.157 76.8266 174.703 77.0001C175.348 77.2126 176.024 77.3174 176.703 77.3101C177.211 77.3028 177.715 77.2288 178.203 77.0901C178.739 76.9479 179.247 76.7145 179.703 76.4001C180.179 76.0662 180.572 75.6284 180.853 75.1201C181.161 74.5568 181.313 73.9216 181.293 73.2801L181.293 67.7501C181.286 67.2209 181.326 66.6921 181.413 66.1701C181.439 65.8434 181.59 65.5392 181.833 65.3201C182.076 65.1754 182.344 65.0771 182.623 65.0301ZM197.693 64.9201C197.433 64.9472 197.176 64.994 196.923 65.0601C196.662 65.1195 196.41 65.2137 196.173 65.3401C195.916 65.5555 195.758 65.8657 195.733 66.2001C195.654 66.7364 195.617 67.278 195.623 67.8201L195.623 77.1501L194.833 77.1501L187.113 66.7201L187.113 73.2901C187.099 73.8568 187.146 74.4234 187.253 74.9801C187.306 75.3009 187.456 75.5977 187.683 75.8301C187.933 76.0124 188.22 76.1387 188.523 76.2001C188.801 76.2826 189.085 76.3395 189.373 76.3701L189.373 77.0001L184.163 77.0001L184.163 76.3601C184.441 76.3267 184.715 76.2699 184.983 76.1901C185.235 76.1394 185.475 76.0446 185.693 75.9101C185.919 75.7088 186.07 75.4377 186.123 75.1401C186.222 74.5589 186.262 73.9693 186.243 73.3801L186.243 67.1201C186.242 66.8368 186.191 66.5559 186.093 66.2901C186.021 66.0518 185.89 65.8353 185.713 65.6601C185.46 65.4341 185.164 65.2607 184.843 65.1501C184.56 65.029 184.26 64.9515 183.953 64.9201L183.953 64.2801L187.583 64.2801L194.743 74.0001L194.743 68.0001C194.757 67.4268 194.71 66.8536 194.603 66.2901C194.56 65.9851 194.415 65.7035 194.193 65.4901C193.936 65.3433 193.66 65.2322 193.373 65.1601C193.094 65.0695 192.806 65.0092 192.513 64.9801L192.513 64.3401L197.693 64.3401L197.693 64.9201ZM198.183 77.0001L203.923 77.0001L203.913 76.3501C203.671 76.345 203.43 76.3148 203.193 76.2601C202.983 76.222 202.776 76.1685 202.573 76.1001C202.389 76.0308 202.231 75.9047 202.123 75.7401C202.042 75.5791 202 75.4006 202.003 75.2201L202.003 66.0001C202.004 65.8232 202.045 65.6488 202.123 65.4901C202.22 65.3135 202.387 65.1862 202.583 65.1401C202.803 65.0742 203.027 65.0241 203.253 64.9901C203.475 64.9555 203.699 64.9321 203.923 64.9201L203.923 64.2801L198.183 64.2801L198.183 64.9201C198.409 64.9401 198.633 64.9769 198.853 65.0301C199.083 65.0844 199.31 65.1512 199.533 65.2301C199.727 65.2915 199.893 65.4188 200.003 65.5901C200.067 65.7558 200.098 65.9325 200.093 66.1101L200.093 75.3201C200.108 75.5188 200.062 75.7173 199.963 75.8901C199.857 76.0366 199.706 76.1452 199.533 76.2001C199.323 76.2671 199.104 76.3041 198.883 76.3101L198.183 76.3601L198.183 77.0001ZM217.363 64.9201C217.174 64.935 216.986 64.9685 216.803 65.0201C216.611 65.0735 216.426 65.1508 216.253 65.2501C216.052 65.3711 215.884 65.5393 215.763 65.7401C215.627 65.9647 215.507 66.1986 215.403 66.4401C215.003 67.3934 214.4 68.8734 213.593 70.8801C212.787 72.8868 211.963 74.9834 211.123 77.1701L210.373 77.1701C209.513 74.8568 208.68 72.6268 207.873 70.4801C207.073 68.3301 206.533 66.8801 206.243 66.1301C206.179 65.9499 206.08 65.7836 205.953 65.6401C205.819 65.4824 205.66 65.3474 205.483 65.2401C205.318 65.1347 205.135 65.0602 204.943 65.0201C204.768 64.9653 204.587 64.9317 204.403 64.9201L204.403 64.2801L209.653 64.2801L209.653 64.9201C209.274 64.9361 208.896 64.9795 208.523 65.0501C208.213 65.1201 208.063 65.2401 208.063 65.4001C208.05 65.4796 208.05 65.5606 208.063 65.6401C208.078 65.7115 208.098 65.7817 208.123 65.8501C208.343 66.4401 208.703 67.3901 209.193 68.7201C209.683 70.0501 210.403 71.9301 211.313 74.3801C211.773 73.2701 212.313 71.9701 212.883 70.4601C213.453 68.9501 213.883 67.9101 214.083 67.3501C214.226 66.9828 214.339 66.605 214.423 66.2201C214.439 66.0505 214.439 65.8797 214.423 65.7101C214.422 65.5716 214.355 65.4419 214.243 65.3601C214.094 65.2561 213.928 65.1784 213.753 65.1301C213.557 65.0693 213.356 65.0225 213.153 64.9901L212.533 64.9201L212.533 64.2801L217.273 64.2801L217.363 64.9201ZM228.303 77.0001L228.543 73.2701L227.903 73.2601C227.745 73.7016 227.551 74.1297 227.323 74.5401C227.095 75.0094 226.806 75.4465 226.463 75.8401C226.321 75.971 226.144 76.0578 225.953 76.0901C225.724 76.1518 225.49 76.1953 225.253 76.2201C224.984 76.2376 224.713 76.2376 224.443 76.2201L223.663 76.2201C223.284 76.2403 222.903 76.2403 222.523 76.2201C222.298 76.2028 222.081 76.127 221.893 76.0001C221.729 75.8779 221.615 75.7001 221.573 75.5001C221.514 75.2038 221.487 74.9021 221.493 74.6001L221.493 70.8201L222.923 70.8201C223.237 70.8121 223.55 70.8491 223.853 70.9301C224.105 71.0164 224.324 71.1768 224.483 71.3901C224.63 71.6041 224.742 71.8405 224.813 72.0901C224.912 72.385 224.975 72.6904 225.003 73.0001L225.673 73.0001L225.673 68.0001L225.003 68.0001C224.954 68.2663 224.88 68.5274 224.783 68.7801C224.709 69.0304 224.594 69.2668 224.443 69.4801C224.299 69.6676 224.11 69.8155 223.893 69.9101C223.571 70.0138 223.232 70.0579 222.893 70.0401L221.463 70.0401L221.463 65.0401L224.343 65.0401C224.603 65.1001 224.823 65.1001 225.003 65.1001C225.476 65.2192 225.887 65.512 226.153 65.9201C226.5 66.3389 226.761 66.8212 226.923 67.3401L227.593 67.3401L227.593 64.2801L217.753 64.2801L217.753 64.9201C217.972 64.9412 218.189 64.9779 218.403 65.0301C218.626 65.0763 218.843 65.1433 219.053 65.2301C219.233 65.3009 219.379 65.4365 219.463 65.6101C219.535 65.7739 219.569 65.9515 219.563 66.1301L219.563 75.2701C219.569 75.4594 219.531 75.6474 219.453 75.8201C219.36 75.9756 219.22 76.098 219.053 76.1701C218.865 76.2323 218.671 76.2726 218.473 76.2901C218.173 76.3601 217.933 76.3601 217.753 76.3601L217.753 77.0001L228.303 77.0001ZM258.613 77.0001L252.873 77.0001L252.873 76.3601L253.573 76.3101C253.794 76.3031 254.013 76.2661 254.223 76.2001C254.395 76.1428 254.545 76.0347 254.653 75.8901C254.752 75.7173 254.798 75.5188 254.783 75.3201L254.783 66.1101C254.79 65.9314 254.755 65.7536 254.683 65.5901C254.58 65.4171 254.416 65.2887 254.223 65.2301C254 65.1512 253.773 65.0844 253.543 65.0301C253.323 64.9769 253.099 64.9401 252.873 64.9201L252.873 64.2801L258.613 64.2801L258.613 64.9201C258.389 64.9321 258.165 64.9555 257.943 64.9901C257.717 65.0241 257.493 65.0742 257.273 65.1401C257.077 65.1862 256.91 65.3135 256.813 65.4901C256.736 65.6557 256.698 65.8373 256.703 66.0201L256.703 75.2401C256.7 75.4206 256.741 75.5991 256.823 75.7601C256.931 75.9247 257.089 76.0508 257.273 76.1201C257.476 76.1885 257.683 76.242 257.893 76.2801C258.129 76.3348 258.371 76.365 258.613 76.3701L258.613 77.0001ZM270.003 67.7401L270.583 67.7401L270.613 64.2801L259.503 64.2801L259.503 67.7501L260.143 67.7501C260.213 67.4919 260.307 67.2408 260.423 67.0001C260.559 66.7008 260.72 66.4131 260.903 66.1401C261.072 65.8784 261.267 65.6339 261.483 65.4101C261.644 65.2261 261.863 65.1026 262.103 65.0601C262.353 65.0001 262.613 65.0001 262.893 65.0001L264.103 65.0001L264.103 75.2301C264.113 75.4361 264.065 75.6406 263.963 75.8201C263.86 75.9763 263.709 76.0954 263.533 76.1601C263.299 76.2315 263.057 76.2751 262.813 76.2901L262.053 76.3601L262.053 77.0001L268.053 77.0001L268.053 76.3701C267.78 76.3584 267.509 76.3216 267.243 76.2601C267.013 76.2173 266.786 76.1605 266.563 76.0901C266.379 76.0143 266.225 75.881 266.123 75.7101C266.042 75.5382 266.001 75.3501 266.003 75.1601L266.003 64.9901L267.333 64.9901C267.568 64.9962 267.801 65.0162 268.033 65.0501C268.271 65.0989 268.488 65.2213 268.653 65.4001C268.876 65.6215 269.073 65.8663 269.243 66.1301C269.42 66.3986 269.577 66.6793 269.713 66.9701C269.838 67.2154 269.935 67.4736 270.003 67.7401ZM236.903 65.6901C237.364 66.185 237.606 66.8447 237.573 67.5201L237.573 67.5301C237.605 68.3257 237.296 69.0971 236.723 69.6501C236.167 70.1808 235.421 70.4656 234.653 70.4401L233.473 70.4401L233.473 65.0001L235.003 65.0001C235.705 64.9585 236.392 65.2082 236.903 65.6901ZM103.083 69.59C103.275 69.3235 103.411 69.0207 103.483 68.7001C103.547 68.4279 103.581 68.1496 103.583 67.8701C103.579 67.5334 103.539 67.1981 103.463 66.8701C103.391 66.5387 103.251 66.2256 103.053 65.9501C102.839 65.6677 102.557 65.4441 102.233 65.3001C101.848 65.1184 101.429 65.0163 101.003 65.0001L99.7032 65.0001L99.7032 70.6001L100.613 70.6001C101.15 70.6262 101.685 70.5233 102.173 70.3001C102.534 70.1482 102.848 69.9032 103.083 69.59ZM55.6832 71.1801C55.8016 71.4366 55.8565 71.7178 55.8432 72C55.805 72.5141 55.5596 72.9905 55.1632 73.3201C54.9571 73.4934 54.7241 73.6319 54.4732 73.7301C53.9482 73.9956 53.3282 73.9956 52.8032 73.7301C52.5627 73.5851 52.3738 73.3682 52.2632 73.11C52.113 72.7657 52.113 72.3744 52.2632 72.0301C52.3896 71.8278 52.5335 71.6371 52.6932 71.4601C52.1063 71.489 51.5646 71.1457 51.3401 70.6026C51.1157 70.0595 51.2571 69.4339 51.6932 69.0401C51.9065 68.8049 52.1696 68.6204 52.4632 68.5001C52.8431 68.3087 53.2757 68.2489 53.6932 68.3301C54.0162 68.408 54.2833 68.6343 54.4132 68.9401C54.5962 69.4301 54.4749 69.9819 54.1032 70.3501C54.4471 70.3092 54.7952 70.3719 55.1032 70.5301C55.3626 70.6773 55.5664 70.9057 55.6832 71.1801ZM26.2932 74.0001L26.2332 74.0001C25.9032 73.8301 25.5032 73.6301 25.0232 73.4201C24.5432 73.2101 24.0232 72.9901 23.5132 72.7701L23.5132 72.7101L23.6132 72.5001L23.6732 72.5001L24.0432 72.6201C24.1768 72.6798 24.3183 72.7202 24.4632 72.7401C24.5272 72.733 24.587 72.7049 24.6332 72.6601C24.9019 72.2395 25.1296 71.7941 25.3132 71.3301L25.7232 70.4301C25.8432 70.1601 25.9932 69.8201 26.1632 69.4301L26.2832 69.1501Q26.3541 69.0084 26.3134 68.9597Q26.3024 68.9465 26.2832 68.9401L25.0032 68.9401C25.0574 68.7798 25.1009 68.6161 25.1332 68.4501C25.8732 68.5701 26.7332 68.6501 27.6832 68.7101L27.7332 68.7901L27.4132 69.4101C27.3532 69.5101 27.2232 69.7801 27.0032 70.2401L26.3532 71.6501C26.0889 72.1804 25.8617 72.7283 25.6732 73.2901C25.6684 73.3467 25.6907 73.4024 25.7332 73.4401C25.9404 73.5795 26.1576 73.7031 26.3832 73.8101L26.3832 73.8701L26.2932 74.0001ZM53.2832 68.8701C53.5075 68.9474 53.6866 69.1192 53.7732 69.34C53.9135 69.6724 53.8638 70.0546 53.6432 70.3401L53.3832 70.3401C53.2735 70.3504 53.163 70.3504 53.0532 70.3401C52.8838 70.359 52.7127 70.359 52.5432 70.34C52.3314 70.2854 52.1552 70.1386 52.0632 69.9401C51.9832 69.7655 51.9832 69.5647 52.0632 69.3901C52.156 69.1792 52.3287 69.0138 52.5432 68.9301C52.7731 68.8158 53.038 68.7943 53.2832 68.8701ZM46.2432 74.6001C46.462 74.0337 46.5242 73.4188 46.4232 72.8201C46.375 72.3859 46.2279 71.9686 45.9932 71.6001C45.6047 71.0035 44.8904 70.7059 44.1932 70.8501C43.8287 70.8858 43.4819 71.0246 43.1932 71.2501C42.65 71.6854 42.3953 72.3877 42.5332 73.0701C42.5646 73.4892 42.7627 73.8782 43.0832 74.1501C43.3645 74.3746 43.7294 74.4658 44.0832 74.4001C44.2947 74.3722 44.5005 74.3115 44.6932 74.2201C44.9281 74.0224 45.1456 73.8049 45.3432 73.5701C45.3737 74.0677 45.3092 74.5666 45.1532 75.0401C45.0757 75.2358 44.9677 75.4181 44.8332 75.5801C44.5543 75.924 44.1528 76.1462 43.7132 76.2001C43.6004 76.2146 43.4861 76.2146 43.3732 76.2001L43.2932 76.3601L43.6732 76.5701C44.2473 76.4984 44.7904 76.2701 45.2432 75.9101C45.6817 75.5647 46.0257 75.1141 46.2432 74.6001ZM37.1532 74.8201C37.1274 75.1043 37.0274 75.3767 36.8632 75.6101C36.5692 76.0314 36.1123 76.3106 35.6032 76.3801C35.3385 76.4254 35.068 76.4254 34.8032 76.3801C34.2151 76.3346 33.684 76.0115 33.3732 75.5101C33.2393 75.259 33.1935 74.9703 33.2432 74.6901C33.2792 74.3191 33.4815 73.9844 33.7932 73.7801C34.0034 73.6677 34.2246 73.5772 34.4532 73.5101C33.9619 73.2334 33.6827 72.6907 33.7432 72.1301C33.8234 71.5321 34.2655 71.0462 34.8532 70.9101C35.1597 70.829 35.479 70.8086 35.7932 70.8501C36.2168 70.8912 36.6161 71.0664 36.9332 71.3501C37.1782 71.5805 37.291 71.9187 37.2332 72.2501C37.1217 72.7489 36.7321 73.1385 36.2332 73.2501C36.5588 73.4179 36.827 73.679 37.0032 74.0001C37.1441 74.2488 37.1969 74.5377 37.1532 74.8201ZM36.5032 72.2601C36.5437 72.0259 36.4818 71.7856 36.3332 71.6001C36.1617 71.4137 35.9258 71.2993 35.6732 71.2801C35.4447 71.2354 35.2078 71.2821 35.0132 71.4101C34.8485 71.531 34.7448 71.7179 34.7295 71.9217C34.7141 72.1255 34.7885 72.3258 34.9332 72.4701C35.0518 72.5981 35.1902 72.7062 35.3433 72.7901L35.6332 72.9601L35.8532 73.0901C36.1983 72.9504 36.4372 72.6306 36.4733 72.2601L36.5032 72.2601ZM44.8332 71.5701C45.0519 71.8616 45.1868 72.2074 45.2232 72.5701C45.2669 72.7609 45.2669 72.9592 45.2232 73.1501C45.1508 73.4402 44.8923 73.6454 44.5932 73.6501C44.3458 73.6971 44.0911 73.6184 43.9132 73.4401C43.6975 73.186 43.5649 72.8718 43.5332 72.5401C43.4976 72.3282 43.4976 72.1119 43.5332 71.9001C43.5747 71.5817 43.8332 71.3357 44.1532 71.3101C44.4094 71.2755 44.6655 71.3734 44.8332 71.5701ZM55.0032 72C54.8534 71.6544 54.5099 71.4333 54.1333 71.44C53.8469 71.42 53.5596 71.42 53.2732 71.44L53.1032 71.44C52.856 71.8114 52.8182 72.2841 53.0032 72.69C53.0852 72.8892 53.2201 73.0621 53.3932 73.19C53.7198 73.4099 54.1383 73.4403 54.4932 73.2701C54.7395 73.1768 54.9354 72.9846 55.0332 72.7401C55.1183 72.4986 55.1076 72.2338 55.0032 72ZM35.7032 74.2201C36.0296 74.4086 36.2079 74.7772 36.1532 75.1501L36.1232 75.1501C36.0937 75.4188 35.9566 75.6641 35.7432 75.8301C35.5285 75.9818 35.2627 76.0429 35.0032 76.0001C34.6236 75.9376 34.3027 75.6846 34.1532 75.3301C34.0644 75.1362 34.0399 74.9189 34.0832 74.7101C34.1444 74.2668 34.4325 73.8877 34.8432 73.7101L34.9532 73.7701C35.2127 73.9037 35.4632 74.054 35.7032 74.2201Z" id="PKU-Logo_Name" fill="#FFFFFF" fill-rule="evenodd" stroke="none" />
</svg>